<svg width="24" height="24" viewBox="0 0 24 24" fill="none" xmlns="http://www.w3.org/2000/svg">
<path d="M12 2C13.8565 2 15.637 2.7375 16.9497 4.05025C18.2625 5.36301 19 7.14348 19 9C19 10.4 18.59 11.71 17.88 12.8L12 22.21L6.11999 12.8C5.3858 11.6689 4.99665 10.3485 4.99999 9C4.99999 7.14348 5.73749 5.36301 7.05024 4.05025C8.363 2.7375 10.1435 2 12 2ZM12 3.5C10.7145 3.49961 9.46945 3.94952 8.48115 4.77158C7.49285 5.59364 6.82372 6.73592 6.58999 8H9.16999C9.57999 6.83 10.69 6 12 6C13.31 6 14.42 6.83 14.83 8H17.41C17.1763 6.73592 16.5071 5.59364 15.5188 4.77158C14.5305 3.94952 13.2855 3.49961 12 3.5ZM12 12C11.379 12.0018 10.7728 11.8102 10.2657 11.4518C9.75857 11.0934 9.3756 10.586 9.16999 10H6.58999C6.71999 10.69 6.96999 11.34 7.33999 11.91L7.37999 12C7.8811 12.7683 8.56612 13.3994 9.37289 13.836C10.1797 14.2726 11.0827 14.5008 12 14.5C13.94 14.5 15.64 13.5 16.62 12L16.66 11.91C17.03 11.34 17.28 10.69 17.41 10H14.83C14.6244 10.586 14.2414 11.0934 13.7343 11.4518C13.2271 11.8102 12.621 12.0018 12 12ZM12 7.5C11.6022 7.5 11.2206 7.65804 10.9393 7.93934C10.658 8.22064 10.5 8.60218 10.5 9C10.5 9.39782 10.658 9.77936 10.9393 10.0607C11.2206 10.342 11.6022 10.5 12 10.5C12.3978 10.5 12.7793 10.342 13.0607 10.0607C13.342 9.77936 13.5 9.39782 13.5 9C13.5 8.60218 13.342 8.22064 13.0607 7.93934C12.7793 7.65804 12.3978 7.5 12 7.5Z" fill="black"/>
</svg>
